# xmcd CD database file
#
# Track frame offsets:
#	150
#	23915
#	54928
#	85865
#	113397
#	138623
#	157320
#	172462
#	191313
#	212101
#	230546
#	253343
#	276499
#	294097
#
# Disc length: 4170 seconds
#
# Revision: 0
# Processed by: cddbd v1.5.2PL0 Copyright (c) Steve Scherf et al.
# Submitted via: CDex 1.70beta2
#
DISCID=d010480e
DTITLE=capsule - FLASH BEST
DYEAR=2009
DGENRE=Electric pop
TTITLE0=Jelly (Rmx Ver.) 
TTITLE1=Jumper (Live Mix)
TTITLE2=グライダー (Rmx Ver. - Live Edit) 
TTITLE3=Flash Back (Extended-live Mix) 
TTITLE4=Starry Sky 
TTITLE5=Fruits Clipper 
TTITLE6=レトロメモリー 
TTITLE7=More More More 
TTITLE8=Dreamin Dreamin 
TTITLE9=Eternity 
TTITLE10=I'm Feeling You 
TTITLE11=空飛ぶ都市計画
TTITLE12=人類の進歩と調和 
TTITLE13=Sugarless Girl 
EXTD=YEAR: 2009
EXTT0=
EXTT1=
EXTT2=
EXTT3=
EXTT4=
EXTT5=
EXTT6=
EXTT7=
EXTT8=
EXTT9=
EXTT10=
EXTT11=
EXTT12=
EXTT13=
PLAYORDER=
